<svg width="1100" height="1405" viewBox="0 0 1100 1405" fill="none" xmlns="http://www.w3.org/2000/svg">
<path d="M159.776 1032.93V1152.66H179.617V1107.34H207.839C229.561 1107.34 245.981 1092.8 245.981 1070.22C245.981 1047.47 230.074 1032.93 207.839 1032.93H159.776ZM179.617 1050.89H205.786C218.272 1050.89 226.14 1058.25 226.14 1070.22C226.14 1082.02 218.272 1089.38 205.786 1089.38H179.617V1050.89ZM279.336 1068.34H261.034V1152.66H279.678V1102.72C279.678 1089.89 287.717 1083.9 299.006 1083.9H312.005V1068H302.256C291.309 1068 284.467 1071.25 281.046 1079.97H279.336V1068.34ZM317.909 1110.42C317.909 1137.78 336.552 1155.06 361.867 1155.06C387.181 1155.06 405.654 1137.78 405.654 1110.42C405.654 1083.22 387.181 1065.95 361.867 1065.95C336.552 1065.95 317.909 1083.22 317.909 1110.42ZM336.723 1110.42C336.723 1093.14 346.986 1082.37 361.867 1082.37C376.576 1082.37 386.839 1092.97 386.839 1110.42C386.839 1127.86 376.576 1138.64 361.867 1138.64C346.986 1138.64 336.723 1128.03 336.723 1110.42ZM418.002 1110.42C418.002 1136.59 437.33 1155.06 461.96 1155.06C485.222 1155.06 499.076 1141.2 503.523 1122.73L485.222 1118.46C483.34 1130.26 476.157 1138.64 462.131 1138.64C447.764 1138.64 436.817 1127.86 436.817 1110.42C436.817 1093.14 447.764 1082.37 462.131 1082.37C475.815 1082.37 483.34 1090.92 484.709 1102.21L502.839 1098.44C499.418 1079.8 485.051 1065.95 461.789 1065.95C437.33 1065.95 418.002 1084.25 418.002 1110.42ZM515.089 1110.07C515.089 1136.59 532.535 1155.06 558.192 1155.06C581.454 1155.06 591.374 1141.72 596.334 1132.82L580.769 1124.44C577.348 1131.8 571.362 1138.81 558.534 1138.81C545.021 1138.81 535.101 1129.4 534.417 1116.4H598.387V1108.71C598.387 1082.88 581.967 1065.77 557.508 1065.77C532.706 1065.77 515.089 1083.73 515.089 1110.07ZM534.588 1101.86C536.127 1090.06 544.337 1082.02 557.336 1082.02C569.823 1082.02 578.204 1089.72 579.23 1101.86H534.588ZM613.433 1091.43C613.433 1107.51 626.774 1113.84 643.879 1116.92L649.694 1117.94C660.812 1119.99 666.456 1122.73 666.456 1129.23C666.456 1135.73 660.47 1140.52 649.694 1140.52C638.747 1140.52 629.853 1136.07 627.459 1122.22L610.012 1126.49C612.92 1145.31 627.972 1155.06 649.694 1155.06C670.904 1155.06 684.587 1145.14 684.587 1127.86C684.587 1110.59 670.732 1105.63 652.26 1102.21L646.444 1101.18C637.208 1099.47 631.564 1096.73 631.564 1090.23C631.564 1084.08 637.037 1080.31 646.273 1080.31C655.51 1080.31 662.18 1084.25 664.233 1094.51L681.337 1089.38C677.574 1075.18 665.259 1065.95 646.273 1065.95C626.432 1065.95 613.433 1075.18 613.433 1091.43ZM699.663 1091.43C699.663 1107.51 713.004 1113.84 730.108 1116.92L735.924 1117.94C747.042 1119.99 752.686 1122.73 752.686 1129.23C752.686 1135.73 746.699 1140.52 735.924 1140.52C724.977 1140.52 716.083 1136.07 713.688 1122.22L696.242 1126.49C699.15 1145.31 714.201 1155.06 735.924 1155.06C757.133 1155.06 770.817 1145.14 770.817 1127.86C770.817 1110.59 756.962 1105.63 738.489 1102.21L732.674 1101.18C723.438 1099.47 717.793 1096.73 717.793 1090.23C717.793 1084.08 723.267 1080.31 732.503 1080.31C741.739 1080.31 748.41 1084.25 750.462 1094.51L767.567 1089.38C763.804 1075.18 751.489 1065.95 732.503 1065.95C712.662 1065.95 699.663 1075.18 699.663 1091.43ZM783.983 1043.2C783.983 1051.06 789.969 1056.54 797.837 1056.54C805.705 1056.54 811.692 1051.06 811.692 1043.2C811.692 1035.16 805.705 1029.68 797.837 1029.68C789.969 1029.68 783.983 1035.16 783.983 1043.2ZM807.245 1068.34H788.601V1152.66H807.245V1068.34ZM830.233 1068.34V1152.66H848.876V1109.39C848.876 1091.94 857.941 1082.19 871.967 1082.19C884.453 1082.19 891.808 1088.87 891.808 1103.06V1152.66H910.623V1102.04C910.623 1080.48 896.939 1066.8 877.611 1066.8C861.533 1066.8 854.007 1073.98 850.245 1081.34H848.534V1068.34H830.233ZM996.809 1068.34V1080.66H995.099C989.968 1072.96 981.416 1065.95 965.851 1065.95C945.155 1065.95 927.195 1082.88 927.195 1109.22C927.195 1135.56 945.155 1152.66 965.851 1152.66C981.416 1152.66 989.968 1145.48 994.757 1138.3H996.467V1165.49C996.467 1168.91 994.757 1170.62 991.678 1170.62H935.576V1186.87H998.178C1008.44 1186.87 1015.28 1180.03 1015.28 1169.43V1068.34H996.809ZM971.324 1136.42C956.614 1136.42 946.01 1125.98 946.01 1109.22C946.01 1092.46 956.614 1082.02 971.324 1082.02C986.034 1082.02 996.809 1092.63 996.809 1109.22C996.809 1125.98 986.034 1136.42 971.324 1136.42Z" fill="#1F34AB"/>
<path d="M510 605C810 605 810 205 510 205" stroke="#0468FF" stroke-width="149.45"/>
<path d="M510 305L210 805" stroke="#1F34AB" stroke-width="150.265"/>
<path d="M210 405L310 605" stroke="#85AEFF" stroke-width="150.237"/>
</svg>
