<svg width="1100" height="1399" viewBox="0 0 1100 1399" fill="none" xmlns="http://www.w3.org/2000/svg">
<path d="M500 199C400 499 700 399 700 699" stroke="#9C4BFF" stroke-width="150.237"/>
<path d="M700 199C800 699 199.999 399 199.999 799" stroke="#5501A4" stroke-width="150.237"/>
<path d="M200 399L500 799" stroke="#D4B2FE" stroke-width="150.237"/>
<path d="M130.776 1032.93V1152.66H150.617V1107.34H178.839C200.561 1107.34 216.981 1092.8 216.981 1070.22C216.981 1047.47 201.074 1032.93 178.839 1032.93H130.776ZM150.617 1050.89H176.786C189.272 1050.89 197.14 1058.25 197.14 1070.22C197.14 1082.02 189.272 1089.38 176.786 1089.38H150.617V1050.89ZM250.336 1068.34H232.034V1152.66H250.678V1102.72C250.678 1089.89 258.717 1083.9 270.006 1083.9H283.005V1068H273.256C262.309 1068 255.467 1071.25 252.046 1079.97H250.336V1068.34ZM288.909 1110.42C288.909 1137.78 307.552 1155.06 332.867 1155.06C358.181 1155.06 376.654 1137.78 376.654 1110.42C376.654 1083.22 358.181 1065.95 332.867 1065.95C307.552 1065.95 288.909 1083.22 288.909 1110.42ZM307.723 1110.42C307.723 1093.14 317.986 1082.37 332.867 1082.37C347.576 1082.37 357.839 1092.97 357.839 1110.42C357.839 1127.86 347.576 1138.64 332.867 1138.64C317.986 1138.64 307.723 1128.03 307.723 1110.42ZM389.002 1110.42C389.002 1136.59 408.33 1155.06 432.96 1155.06C456.222 1155.06 470.076 1141.2 474.523 1122.73L456.222 1118.46C454.34 1130.26 447.157 1138.64 433.131 1138.64C418.764 1138.64 407.817 1127.86 407.817 1110.42C407.817 1093.14 418.764 1082.37 433.131 1082.37C446.815 1082.37 454.34 1090.92 455.709 1102.21L473.839 1098.44C470.418 1079.8 456.051 1065.95 432.789 1065.95C408.33 1065.95 389.002 1084.25 389.002 1110.42ZM486.089 1110.07C486.089 1136.59 503.535 1155.06 529.192 1155.06C552.454 1155.06 562.374 1141.72 567.334 1132.82L551.769 1124.44C548.348 1131.8 542.362 1138.81 529.534 1138.81C516.021 1138.81 506.101 1129.4 505.417 1116.4H569.387V1108.71C569.387 1082.88 552.967 1065.77 528.508 1065.77C503.706 1065.77 486.089 1083.73 486.089 1110.07ZM505.588 1101.86C507.127 1090.06 515.337 1082.02 528.336 1082.02C540.823 1082.02 549.204 1089.72 550.23 1101.86H505.588ZM584.433 1091.43C584.433 1107.51 597.774 1113.84 614.879 1116.92L620.694 1117.94C631.812 1119.99 637.456 1122.73 637.456 1129.23C637.456 1135.73 631.47 1140.52 620.694 1140.52C609.747 1140.52 600.853 1136.07 598.459 1122.22L581.012 1126.49C583.92 1145.31 598.972 1155.06 620.694 1155.06C641.904 1155.06 655.587 1145.14 655.587 1127.86C655.587 1110.59 641.732 1105.63 623.26 1102.21L617.444 1101.18C608.208 1099.47 602.564 1096.73 602.564 1090.23C602.564 1084.08 608.037 1080.31 617.273 1080.31C626.51 1080.31 633.18 1084.25 635.233 1094.51L652.337 1089.38C648.574 1075.18 636.259 1065.95 617.273 1065.95C597.432 1065.95 584.433 1075.18 584.433 1091.43ZM670.663 1091.43C670.663 1107.51 684.004 1113.84 701.108 1116.92L706.924 1117.94C718.042 1119.99 723.686 1122.73 723.686 1129.23C723.686 1135.73 717.699 1140.52 706.924 1140.52C695.977 1140.52 687.083 1136.07 684.688 1122.22L667.242 1126.49C670.15 1145.31 685.201 1155.06 706.924 1155.06C728.133 1155.06 741.817 1145.14 741.817 1127.86C741.817 1110.59 727.962 1105.63 709.489 1102.21L703.674 1101.18C694.438 1099.47 688.793 1096.73 688.793 1090.23C688.793 1084.08 694.267 1080.31 703.503 1080.31C712.739 1080.31 719.41 1084.25 721.462 1094.51L738.567 1089.38C734.804 1075.18 722.489 1065.95 703.503 1065.95C683.662 1065.95 670.663 1075.18 670.663 1091.43ZM754.983 1043.2C754.983 1051.06 760.969 1056.54 768.837 1056.54C776.705 1056.54 782.692 1051.06 782.692 1043.2C782.692 1035.16 776.705 1029.68 768.837 1029.68C760.969 1029.68 754.983 1035.16 754.983 1043.2ZM778.245 1068.34H759.601V1152.66H778.245V1068.34ZM801.233 1068.34V1152.66H819.876V1109.39C819.876 1091.94 828.941 1082.19 842.967 1082.19C855.453 1082.19 862.808 1088.87 862.808 1103.06V1152.66H881.623V1102.04C881.623 1080.48 867.939 1066.8 848.611 1066.8C832.533 1066.8 825.007 1073.98 821.245 1081.34H819.534V1068.34H801.233ZM967.809 1068.34V1080.66H966.099C960.968 1072.96 952.416 1065.95 936.851 1065.95C916.155 1065.95 898.195 1082.88 898.195 1109.22C898.195 1135.56 916.155 1152.66 936.851 1152.66C952.416 1152.66 960.968 1145.48 965.757 1138.3H967.467V1165.49C967.467 1168.91 965.757 1170.62 962.678 1170.62H906.576V1186.87H969.178C979.44 1186.87 986.282 1180.03 986.282 1169.43V1068.34H967.809ZM942.324 1136.42C927.614 1136.42 917.01 1125.98 917.01 1109.22C917.01 1092.46 927.614 1082.02 942.324 1082.02C957.034 1082.02 967.809 1092.63 967.809 1109.22C967.809 1125.98 957.034 1136.42 942.324 1136.42ZM130.776 1215.93V1335.66H150.617V1284.52H202.785V1266.73H150.617V1233.89H206.206V1215.93H130.776ZM217.211 1293.42C217.211 1320.78 235.855 1338.06 261.169 1338.06C286.483 1338.06 304.956 1320.78 304.956 1293.42C304.956 1266.22 286.483 1248.95 261.169 1248.95C235.855 1248.95 217.211 1266.22 217.211 1293.42ZM236.026 1293.42C236.026 1276.14 246.288 1265.37 261.169 1265.37C275.879 1265.37 286.141 1275.97 286.141 1293.42C286.141 1310.86 275.879 1321.64 261.169 1321.64C246.288 1321.64 236.026 1311.03 236.026 1293.42ZM402.997 1335.66V1251.34H384.353V1294.61C384.353 1311.89 375.288 1321.64 361.262 1321.64C348.776 1321.64 341.422 1314.97 341.422 1300.94V1251.34H322.607V1301.97C322.607 1323.35 336.29 1337.03 355.618 1337.03C371.696 1337.03 379.222 1330.02 382.985 1322.49H384.695V1335.66H402.997ZM425.874 1251.34V1335.66H444.518V1292.39C444.518 1274.94 453.583 1265.19 467.608 1265.19C480.094 1265.19 487.449 1271.87 487.449 1286.06V1335.66H506.264V1285.04C506.264 1263.48 492.581 1249.8 473.253 1249.8C457.175 1249.8 449.649 1256.98 445.886 1264.34H444.175V1251.34H425.874ZM610.923 1215.93H592.109V1263.14H590.398C585.609 1255.96 577.057 1248.95 561.492 1248.95C540.796 1248.95 522.836 1266.05 522.836 1293.42C522.836 1320.95 540.796 1338.06 561.492 1338.06C577.057 1338.06 585.609 1331.05 590.74 1323.18H592.451V1335.66H610.923V1215.93ZM566.965 1265.02C581.675 1265.02 592.451 1275.63 592.451 1293.42C592.451 1311.2 581.675 1321.81 566.965 1321.81C552.256 1321.81 541.651 1311.38 541.651 1293.42C541.651 1275.63 552.256 1265.02 566.965 1265.02ZM632.205 1273.23L649.651 1279.05C651.362 1270.33 657.348 1264 669.15 1264C680.952 1264 686.596 1270.67 686.596 1279.73V1284.86H661.624C642.81 1284.86 629.297 1293.76 629.297 1311.2C629.297 1328.31 642.81 1338.06 660.256 1338.06C676.334 1338.06 682.32 1329.68 684.715 1325.06H686.939V1335.66H704.898V1281.1C704.898 1260.41 691.215 1248.77 669.321 1248.77C647.599 1248.77 636.31 1260.06 632.205 1273.23ZM648.112 1310.69C648.112 1303.68 653.756 1299.4 662.822 1299.4H686.596V1300.94C686.596 1314.28 677.189 1322.66 663.848 1322.66C653.756 1322.66 648.112 1317.88 648.112 1310.69ZM715.406 1266.56H738.155V1318.22C738.155 1328.82 744.997 1335.66 755.259 1335.66H779.034V1320.27H761.759C758.68 1320.27 756.97 1318.56 756.97 1315.14V1266.56H781.6V1251.34H756.97V1223.8H738.155V1251.34H715.406V1266.56ZM794.57 1226.2C794.57 1234.06 800.556 1239.54 808.424 1239.54C816.292 1239.54 822.279 1234.06 822.279 1226.2C822.279 1218.16 816.292 1212.68 808.424 1212.68C800.556 1212.68 794.57 1218.16 794.57 1226.2ZM817.832 1251.34H799.188V1335.66H817.832V1251.34ZM835.517 1293.42C835.517 1320.78 854.161 1338.06 879.475 1338.06C904.79 1338.06 923.262 1320.78 923.262 1293.42C923.262 1266.22 904.79 1248.95 879.475 1248.95C854.161 1248.95 835.517 1266.22 835.517 1293.42ZM854.332 1293.42C854.332 1276.14 864.594 1265.37 879.475 1265.37C894.185 1265.37 904.447 1275.97 904.447 1293.42C904.447 1310.86 894.185 1321.64 879.475 1321.64C864.594 1321.64 854.332 1311.03 854.332 1293.42ZM940.913 1251.34V1335.66H959.557V1292.39C959.557 1274.94 968.622 1265.19 982.647 1265.19C995.133 1265.19 1002.49 1271.87 1002.49 1286.06V1335.66H1021.3V1285.04C1021.3 1263.48 1007.62 1249.8 988.292 1249.8C972.214 1249.8 964.688 1256.98 960.925 1264.34H959.215V1251.34H940.913Z" fill="#5501A4"/>
</svg>
