<svg width="1100" height="1405" viewBox="0 0 1100 1405" fill="none" xmlns="http://www.w3.org/2000/svg">
<path d="M400 205C700 205 700 605 400 605" stroke="#104B58" stroke-width="150"/>
<path d="M400 805C100 805 100 405 400 405" stroke="#2D9E97" stroke-width="150"/>
<path d="M500 805H800" stroke="#8CE4DF" stroke-width="150"/>
<path d="M110.776 1033.27V1153H130.617V1107.67H158.839C180.561 1107.67 196.981 1093.14 196.981 1070.56C196.981 1047.81 181.074 1033.27 158.839 1033.27H110.776ZM130.617 1051.23H156.786C169.272 1051.23 177.14 1058.58 177.14 1070.56C177.14 1082.36 169.272 1089.71 156.786 1089.71H130.617V1051.23ZM230.336 1068.68H212.034V1153H230.678V1103.06C230.678 1090.23 238.717 1084.24 250.006 1084.24H263.005V1068.33H253.256C242.309 1068.33 235.467 1071.58 232.046 1080.31H230.336V1068.68ZM268.909 1110.75C268.909 1138.12 287.552 1155.39 312.867 1155.39C338.181 1155.39 356.654 1138.12 356.654 1110.75C356.654 1083.56 338.181 1066.28 312.867 1066.28C287.552 1066.28 268.909 1083.56 268.909 1110.75ZM287.723 1110.75C287.723 1093.48 297.986 1082.7 312.867 1082.7C327.576 1082.7 337.839 1093.31 337.839 1110.75C337.839 1128.2 327.576 1138.97 312.867 1138.97C297.986 1138.97 287.723 1128.37 287.723 1110.75ZM369.002 1110.75C369.002 1136.92 388.33 1155.39 412.96 1155.39C436.222 1155.39 450.076 1141.54 454.523 1123.07L436.222 1118.79C434.34 1130.59 427.157 1138.97 413.131 1138.97C398.764 1138.97 387.817 1128.2 387.817 1110.75C387.817 1093.48 398.764 1082.7 413.131 1082.7C426.815 1082.7 434.34 1091.25 435.709 1102.54L453.839 1098.78C450.418 1080.14 436.051 1066.28 412.789 1066.28C388.33 1066.28 369.002 1084.58 369.002 1110.75ZM466.089 1110.41C466.089 1136.92 483.535 1155.39 509.192 1155.39C532.454 1155.39 542.374 1142.05 547.334 1133.16L531.769 1124.78C528.348 1132.13 522.362 1139.15 509.534 1139.15C496.021 1139.15 486.101 1129.74 485.417 1116.74H549.387V1109.04C549.387 1083.21 532.967 1066.11 508.508 1066.11C483.706 1066.11 466.089 1084.07 466.089 1110.41ZM485.588 1102.2C487.127 1090.4 495.337 1082.36 508.336 1082.36C520.823 1082.36 529.204 1090.06 530.23 1102.2H485.588ZM564.433 1091.77C564.433 1107.84 577.774 1114.17 594.879 1117.25L600.694 1118.28C611.812 1120.33 617.456 1123.07 617.456 1129.57C617.456 1136.07 611.47 1140.86 600.694 1140.86C589.747 1140.86 580.853 1136.41 578.459 1122.55L561.012 1126.83C563.92 1145.65 578.972 1155.39 600.694 1155.39C621.904 1155.39 635.587 1145.47 635.587 1128.2C635.587 1110.92 621.732 1105.96 603.26 1102.54L597.444 1101.52C588.208 1099.81 582.564 1097.07 582.564 1090.57C582.564 1084.41 588.037 1080.65 597.273 1080.65C606.51 1080.65 613.18 1084.58 615.233 1094.85L632.337 1089.71C628.574 1075.52 616.259 1066.28 597.273 1066.28C577.432 1066.28 564.433 1075.52 564.433 1091.77ZM650.663 1091.77C650.663 1107.84 664.004 1114.17 681.108 1117.25L686.924 1118.28C698.042 1120.33 703.686 1123.07 703.686 1129.57C703.686 1136.07 697.699 1140.86 686.924 1140.86C675.977 1140.86 667.083 1136.41 664.688 1122.55L647.242 1126.83C650.15 1145.65 665.201 1155.39 686.924 1155.39C708.133 1155.39 721.817 1145.47 721.817 1128.2C721.817 1110.92 707.962 1105.96 689.489 1102.54L683.674 1101.52C674.438 1099.81 668.793 1097.07 668.793 1090.57C668.793 1084.41 674.267 1080.65 683.503 1080.65C692.739 1080.65 699.41 1084.58 701.462 1094.85L718.567 1089.71C714.804 1075.52 702.489 1066.28 683.503 1066.28C663.662 1066.28 650.663 1075.52 650.663 1091.77ZM734.983 1043.53C734.983 1051.4 740.969 1056.87 748.837 1056.87C756.705 1056.87 762.692 1051.4 762.692 1043.53C762.692 1035.49 756.705 1030.02 748.837 1030.02C740.969 1030.02 734.983 1035.49 734.983 1043.53ZM758.245 1068.68H739.601V1153H758.245V1068.68ZM781.233 1068.68V1153H799.876V1109.73C799.876 1092.28 808.941 1082.53 822.967 1082.53C835.453 1082.53 842.808 1089.2 842.808 1103.4V1153H861.623V1102.37C861.623 1080.82 847.939 1067.14 828.611 1067.14C812.533 1067.14 805.007 1074.32 801.245 1081.68H799.534V1068.68H781.233ZM947.809 1068.68V1080.99H946.099C940.968 1073.29 932.416 1066.28 916.851 1066.28C896.155 1066.28 878.195 1083.21 878.195 1109.56C878.195 1135.9 896.155 1153 916.851 1153C932.416 1153 940.968 1145.82 945.757 1138.63H947.467V1165.83C947.467 1169.25 945.757 1170.96 942.678 1170.96H886.576V1187.21H949.178C959.44 1187.21 966.282 1180.37 966.282 1169.76V1068.68H947.809ZM922.324 1136.75C907.614 1136.75 897.01 1126.32 897.01 1109.56C897.01 1092.79 907.614 1082.36 922.324 1082.36C937.034 1082.36 947.809 1092.96 947.809 1109.56C947.809 1126.32 937.034 1136.75 922.324 1136.75ZM110.776 1216.27V1336H130.617V1290.67H158.839C180.561 1290.67 196.981 1276.14 196.981 1253.56C196.981 1230.81 181.074 1216.27 158.839 1216.27H110.776ZM130.617 1234.23H156.786C169.272 1234.23 177.14 1241.58 177.14 1253.56C177.14 1265.36 169.272 1272.71 156.786 1272.71H130.617V1234.23ZM273.268 1251.68L249.151 1315.13H247.44L223.323 1251.68H202.798L238.375 1340.28L225.718 1370.21H246.072L293.793 1251.68H273.268ZM297.872 1266.9H320.621V1318.55C320.621 1329.16 327.463 1336 337.725 1336H361.5V1320.61H344.225C341.146 1320.61 339.436 1318.9 339.436 1315.47V1266.9H364.066V1251.68H339.436V1224.14H320.621V1251.68H297.872V1266.9ZM381.654 1216.27V1336H400.298V1292.73C400.298 1275.28 409.363 1265.53 423.388 1265.53C435.874 1265.53 443.229 1272.2 443.229 1286.4V1336H462.044V1285.37C462.044 1263.82 448.361 1250.14 429.033 1250.14C412.955 1250.14 405.6 1257.32 402.008 1263.99H400.298V1216.27H381.654ZM478.616 1293.75C478.616 1321.12 497.26 1338.39 522.574 1338.39C547.889 1338.39 566.361 1321.12 566.361 1293.75C566.361 1266.56 547.889 1249.28 522.574 1249.28C497.26 1249.28 478.616 1266.56 478.616 1293.75ZM497.431 1293.75C497.431 1276.48 507.694 1265.7 522.574 1265.7C537.284 1265.7 547.547 1276.31 547.547 1293.75C547.547 1311.2 537.284 1321.97 522.574 1321.97C507.694 1321.97 497.431 1311.37 497.431 1293.75ZM584.012 1251.68V1336H602.656V1292.73C602.656 1275.28 611.721 1265.53 625.747 1265.53C638.233 1265.53 645.588 1272.2 645.588 1286.4V1336H664.402V1285.37C664.402 1263.82 650.719 1250.14 631.391 1250.14C615.313 1250.14 607.787 1257.32 604.024 1264.68H602.314V1251.68H584.012Z" fill="#2D9E97"/>
</svg>
