<svg width="1100" height="1405" viewBox="0 0 1100 1405" fill="none" xmlns="http://www.w3.org/2000/svg">
<path d="M100 805L700 805" stroke="#B6DC9F" stroke-width="150"/>
<path d="M600 605C600 305 200 305 200 605" stroke="#146F43" stroke-width="152.446"/>
<path d="M600 505C600 205 200 205 200 505" stroke="#98C800" stroke-width="152.446"/>
<path d="M110.776 1032.93V1152.66H130.617V1107.34H158.839C180.561 1107.34 196.981 1092.8 196.981 1070.22C196.981 1047.47 181.074 1032.93 158.839 1032.93H110.776ZM130.617 1050.89H156.786C169.272 1050.89 177.14 1058.25 177.14 1070.22C177.14 1082.02 169.272 1089.38 156.786 1089.38H130.617V1050.89ZM230.336 1068.34H212.034V1152.66H230.678V1102.72C230.678 1089.89 238.717 1083.9 250.006 1083.9H263.005V1068H253.256C242.309 1068 235.467 1071.25 232.046 1079.97H230.336V1068.34ZM268.909 1110.42C268.909 1137.78 287.552 1155.06 312.867 1155.06C338.181 1155.06 356.654 1137.78 356.654 1110.42C356.654 1083.22 338.181 1065.95 312.867 1065.95C287.552 1065.95 268.909 1083.22 268.909 1110.42ZM287.723 1110.42C287.723 1093.14 297.986 1082.37 312.867 1082.37C327.576 1082.37 337.839 1092.97 337.839 1110.42C337.839 1127.86 327.576 1138.64 312.867 1138.64C297.986 1138.64 287.723 1128.03 287.723 1110.42ZM369.002 1110.42C369.002 1136.59 388.33 1155.06 412.96 1155.06C436.222 1155.06 450.076 1141.2 454.523 1122.73L436.222 1118.46C434.34 1130.26 427.157 1138.64 413.131 1138.64C398.764 1138.64 387.817 1127.86 387.817 1110.42C387.817 1093.14 398.764 1082.37 413.131 1082.37C426.815 1082.37 434.34 1090.92 435.709 1102.21L453.839 1098.44C450.418 1079.8 436.051 1065.95 412.789 1065.95C388.33 1065.95 369.002 1084.25 369.002 1110.42ZM466.089 1110.07C466.089 1136.59 483.535 1155.06 509.192 1155.06C532.454 1155.06 542.374 1141.72 547.334 1132.82L531.769 1124.44C528.348 1131.8 522.362 1138.81 509.534 1138.81C496.021 1138.81 486.101 1129.4 485.417 1116.4H549.387V1108.71C549.387 1082.88 532.967 1065.77 508.508 1065.77C483.706 1065.77 466.089 1083.73 466.089 1110.07ZM485.588 1101.86C487.127 1090.06 495.337 1082.02 508.336 1082.02C520.823 1082.02 529.204 1089.72 530.23 1101.86H485.588ZM564.433 1091.43C564.433 1107.51 577.774 1113.84 594.879 1116.92L600.694 1117.94C611.812 1119.99 617.456 1122.73 617.456 1129.23C617.456 1135.73 611.47 1140.52 600.694 1140.52C589.747 1140.52 580.853 1136.07 578.459 1122.22L561.012 1126.49C563.92 1145.31 578.972 1155.06 600.694 1155.06C621.904 1155.06 635.587 1145.14 635.587 1127.86C635.587 1110.59 621.732 1105.63 603.26 1102.21L597.444 1101.18C588.208 1099.47 582.564 1096.73 582.564 1090.23C582.564 1084.08 588.037 1080.31 597.273 1080.31C606.51 1080.31 613.18 1084.25 615.233 1094.51L632.337 1089.38C628.574 1075.18 616.259 1065.95 597.273 1065.95C577.432 1065.95 564.433 1075.18 564.433 1091.43ZM650.663 1091.43C650.663 1107.51 664.004 1113.84 681.108 1116.92L686.924 1117.94C698.042 1119.99 703.686 1122.73 703.686 1129.23C703.686 1135.73 697.699 1140.52 686.924 1140.52C675.977 1140.52 667.083 1136.07 664.688 1122.22L647.242 1126.49C650.15 1145.31 665.201 1155.06 686.924 1155.06C708.133 1155.06 721.817 1145.14 721.817 1127.86C721.817 1110.59 707.962 1105.63 689.489 1102.21L683.674 1101.18C674.438 1099.47 668.793 1096.73 668.793 1090.23C668.793 1084.08 674.267 1080.31 683.503 1080.31C692.739 1080.31 699.41 1084.25 701.462 1094.51L718.567 1089.38C714.804 1075.18 702.489 1065.95 683.503 1065.95C663.662 1065.95 650.663 1075.18 650.663 1091.43ZM734.983 1043.2C734.983 1051.06 740.969 1056.54 748.837 1056.54C756.705 1056.54 762.692 1051.06 762.692 1043.2C762.692 1035.16 756.705 1029.68 748.837 1029.68C740.969 1029.68 734.983 1035.16 734.983 1043.2ZM758.245 1068.34H739.601V1152.66H758.245V1068.34ZM781.233 1068.34V1152.66H799.876V1109.39C799.876 1091.94 808.941 1082.19 822.967 1082.19C835.453 1082.19 842.808 1088.87 842.808 1103.06V1152.66H861.623V1102.04C861.623 1080.48 847.939 1066.8 828.611 1066.8C812.533 1066.8 805.007 1073.98 801.245 1081.34H799.534V1068.34H781.233ZM947.809 1068.34V1080.66H946.099C940.968 1072.96 932.416 1065.95 916.851 1065.95C896.155 1065.95 878.195 1082.88 878.195 1109.22C878.195 1135.56 896.155 1152.66 916.851 1152.66C932.416 1152.66 940.968 1145.48 945.757 1138.3H947.467V1165.49C947.467 1168.91 945.757 1170.62 942.678 1170.62H886.576V1186.87H949.178C959.44 1186.87 966.282 1180.03 966.282 1169.43V1068.34H947.809ZM922.324 1136.42C907.614 1136.42 897.01 1125.98 897.01 1109.22C897.01 1092.46 907.614 1082.02 922.324 1082.02C937.034 1082.02 947.809 1092.63 947.809 1109.22C947.809 1125.98 937.034 1136.42 922.324 1136.42ZM136.261 1215.93L101.026 1335.66H121.38L129.419 1307.78H173.89L181.929 1335.66H202.113L166.878 1215.93H136.261ZM134.209 1289.82L150.8 1232.53H152.51L168.93 1289.82H134.209ZM215.375 1251.34V1335.66H234.019V1292.39C234.019 1274.94 243.084 1265.19 257.109 1265.19C269.596 1265.19 276.95 1271.87 276.95 1286.06V1335.66H295.765V1285.04C295.765 1263.48 282.082 1249.8 262.754 1249.8C246.676 1249.8 239.15 1256.98 235.387 1264.34H233.677V1251.34H215.375ZM400.425 1215.93H381.61V1263.14H379.899C375.11 1255.96 366.558 1248.95 350.993 1248.95C330.297 1248.95 312.338 1266.05 312.338 1293.42C312.338 1320.95 330.297 1338.06 350.993 1338.06C366.558 1338.06 375.11 1331.05 380.242 1323.18H381.952V1335.66H400.425V1215.93ZM356.467 1265.02C371.176 1265.02 381.952 1275.63 381.952 1293.42C381.952 1311.2 371.176 1321.81 356.467 1321.81C341.757 1321.81 331.152 1311.38 331.152 1293.42C331.152 1275.63 341.757 1265.02 356.467 1265.02ZM441.547 1251.34H423.245V1335.66H441.889V1285.72C441.889 1272.89 449.928 1266.9 461.217 1266.9H474.216V1251H464.467C453.52 1251 446.678 1254.25 443.257 1262.97H441.547V1251.34ZM480.12 1293.42C480.12 1320.78 498.763 1338.06 524.078 1338.06C549.392 1338.06 567.865 1320.78 567.865 1293.42C567.865 1266.22 549.392 1248.95 524.078 1248.95C498.763 1248.95 480.12 1266.22 480.12 1293.42ZM498.934 1293.42C498.934 1276.14 509.197 1265.37 524.078 1265.37C538.787 1265.37 549.05 1275.97 549.05 1293.42C549.05 1310.86 538.787 1321.64 524.078 1321.64C509.197 1321.64 498.934 1311.03 498.934 1293.42ZM580.897 1226.2C580.897 1234.06 586.884 1239.54 594.752 1239.54C602.62 1239.54 608.606 1234.06 608.606 1226.2C608.606 1218.16 602.62 1212.68 594.752 1212.68C586.884 1212.68 580.897 1218.16 580.897 1226.2ZM604.159 1251.34H585.516V1335.66H604.159V1251.34ZM709.932 1215.93H691.117V1263.14H689.407C684.617 1255.96 676.065 1248.95 660.5 1248.95C639.804 1248.95 621.845 1266.05 621.845 1293.42C621.845 1320.95 639.804 1338.06 660.5 1338.06C676.065 1338.06 684.617 1331.05 689.749 1323.18H691.459V1335.66H709.932V1215.93ZM665.974 1265.02C680.683 1265.02 691.459 1275.63 691.459 1293.42C691.459 1311.2 680.683 1321.81 665.974 1321.81C651.264 1321.81 640.659 1311.38 640.659 1293.42C640.659 1275.63 651.264 1265.02 665.974 1265.02Z" fill="#98C800"/>
</svg>
